<?xml version="1.0" standalone="no"?>
<!DOCTYPE svg PUBLIC "-//W3C//DTD SVG 20010904//EN"
 "http://www.w3.org/TR/2001/REC-SVG-20010904/DTD/svg10.dtd">
<svg version="1.0" xmlns="http://www.w3.org/2000/svg"
 width="729.000000pt" height="729.000000pt" viewBox="0 0 729.000000 729.000000"
 preserveAspectRatio="xMidYMid meet">
<metadata>
Created by potrace 1.11, written by Peter Selinger 2001-2013
</metadata>
<g transform="translate(0.000000,729.000000) scale(0.100000,-0.100000)"
fill="#000000" stroke="none">
<path d="M3664 7248 c-6 -32 -34 -98 -44 -108 -3 -3 -18 -23 -35 -45 -16 -22
-42 -53 -56 -70 -39 -43 -63 -71 -74 -89 -6 -9 -33 -17 -65 -21 -30 -3 -66 -8
-80 -10 -143 -22 -190 -22 -224 0 -38 25 -87 21 -136 -11 -33 -22 -55 -29 -89
-28 -43 0 -66 8 -166 53 -107 49 -208 91 -230 96 -5 1 -32 10 -60 20 -96 33
-246 24 -300 -17 -5 -5 -21 -16 -34 -27 l-25 -18 27 -23 c33 -29 33 -33 0 -87
-22 -34 -39 -47 -83 -64 -53 -20 -182 -51 -265 -64 -61 -9 -156 -35 -187 -51
-30 -16 -33 -25 -18 -54 11 -21 50 -19 88 6 13 9 25 14 27 12 2 -2 -59 -99
-136 -216 -76 -117 -139 -217 -139 -222 0 -6 -4 -10 -9 -10 -5 0 -16 -15 -25
-32 -9 -18 -30 -55 -47 -83 -29 -47 -89 -169 -95 -190 -18 -64 -22 -166 -10
-250 4 -27 9 -63 12 -80 2 -16 7 -37 10 -45 14 -38 17 -110 17 -460 0 -345 -2
-410 -19 -495 -3 -16 -7 -39 -8 -50 -2 -11 -6 -31 -9 -45 -4 -14 -9 -41 -12
-60 -2 -19 -8 -57 -12 -85 -15 -94 -9 -246 11 -297 10 -27 21 -48 24 -48 3 0
13 7 22 15 26 24 37 1 43 -90 3 -44 9 -89 13 -100 6 -16 71 -103 94 -125 3 -3
34 -39 70 -80 36 -41 67 -77 70 -80 14 -12 47 -67 53 -85 24 -85 94 -263 108
-275 3 -3 52 -68 109 -145 58 -77 110 -146 117 -153 7 -7 13 -16 13 -20 0 -4
14 -22 31 -39 16 -18 27 -33 24 -33 -3 0 3 -17 14 -37 25 -49 50 -136 57 -193
3 -25 7 -52 9 -60 3 -8 7 -33 10 -55 11 -78 28 -151 47 -209 22 -63 78 -165
102 -185 8 -7 13 -18 11 -24 -2 -7 -6 -30 -9 -52 -3 -22 -14 -68 -24 -102 -11
-34 -17 -65 -14 -68 3 -3 1 -5 -4 -5 -6 0 -16 -17 -23 -37 -13 -36 -89 -168
-116 -202 -65 -80 -118 -142 -152 -176 -45 -46 -58 -71 -40 -82 13 -8 14 -8
72 -22 22 -5 49 -11 60 -14 54 -13 238 -70 300 -92 39 -14 90 -32 115 -41 25
-8 60 -22 77 -30 18 -8 48 -20 65 -28 113 -46 161 -68 316 -143 95 -46 189
-94 210 -107 20 -13 39 -23 42 -23 18 2 472 -284 508 -320 7 -7 26 -20 42 -30
17 -9 30 -21 30 -25 0 -4 5 -8 10 -8 6 0 18 -8 28 -18 10 -9 40 -35 67 -57
107 -89 220 -199 277 -272 24 -29 51 -53 60 -53 10 0 18 3 18 8 0 4 -18 70
-40 147 -22 77 -43 154 -47 170 -9 39 -8 203 1 235 4 14 9 35 12 47 10 51 89
200 139 264 11 14 27 36 35 49 8 12 20 28 25 34 6 6 42 54 82 106 80 106 122
179 158 272 59 156 112 238 197 304 41 32 192 72 328 88 25 3 67 10 95 15 27
5 53 7 57 5 3 -2 9 0 13 6 4 6 10 8 14 5 13 -7 156 40 204 68 24 14 60 45 79
69 54 67 69 124 82 315 3 39 12 104 21 145 8 40 15 76 15 79 0 3 8 14 18 25 9
10 41 47 71 81 l53 62 -7 58 c-4 31 -9 65 -10 75 -4 19 0 23 47 59 l28 20 2
196 3 195 60 32 c124 66 285 203 285 242 0 71 -82 226 -213 403 -75 102 -78
106 -119 152 -16 17 -28 34 -28 38 0 3 -41 49 -90 101 -93 99 -96 107 -68 162
19 39 44 136 47 184 2 51 -1 60 -72 214 -27 60 -57 130 -57 136 0 2 39 33 88
68 48 36 97 76 109 89 29 31 59 109 73 188 17 96 38 155 69 188 31 33 32 59 7
201 -10 61 -52 166 -76 195 -10 11 -23 36 -29 57 -17 53 -53 83 -134 114 -72
28 -157 78 -157 93 0 4 -9 17 -20 28 -10 12 -43 68 -71 125 -58 115 -112 175
-187 208 -96 43 -306 106 -447 135 -16 3 -37 8 -45 10 -8 2 -19 4 -23 4 -18 2
2 84 31 131 31 50 35 62 33 90 -1 13 -29 15 -188 14 -129 0 -196 4 -213 12
-40 19 -84 76 -134 173 -51 98 -49 98 -128 61 -22 -11 -39 -11 -82 -1 -61 14
-117 51 -191 126 -62 63 -117 105 -138 105 -9 0 -18 -13 -23 -32z"/>
</g>
</svg>
